<svg width="40" height="40" viewBox="0 0 40 40" fill="none" xmlns="http://www.w3.org/2000/svg">
<path d="M38.9 33.5987L29.7225 24.4212C28.3538 26.5475 26.5463 28.3563 24.42 29.7238L33.5988 38.9012C35.0638 40.3662 37.4375 40.3662 38.9 38.9012C40.3662 37.44 40.3662 35.0662 38.9 33.5987Z" fill="black"/>
<path d="M30 15C30 6.71625 23.2837 0 15 0C6.71625 0 0 6.71625 0 15C0 23.2837 6.71625 30 15 30C23.2837 30 30 23.2837 30 15ZM15 26.25C8.795 26.25 3.75 21.205 3.75 15C3.75 8.79625 8.795 3.75 15 3.75C21.2037 3.75 26.25 8.79625 26.25 15C26.25 21.205 21.2037 26.25 15 26.25Z" fill="black"/>
<path d="M6.25 15H8.75C8.75 11.5538 11.5525 8.75 15 8.75V6.25C10.175 6.25 6.25 10.1775 6.25 15Z" fill="black"/>
</svg>
